<?xml version="1.0" encoding="utf-8"?>
<!-- Generator: Adobe Illustrator 12.0.0, SVG Export Plug-In  -->
<!DOCTYPE svg PUBLIC "-//W3C//DTD SVG 1.1//EN" "http://www.w3.org/Graphics/SVG/1.1/DTD/svg11.dtd" [
	<!ENTITY ns_flows "http://ns.adobe.com/Flows/1.0/">
	<!ENTITY ns_svg "http://www.w3.org/2000/svg">
	<!ENTITY ns_xlink "http://www.w3.org/1999/xlink">
]>
<svg  version="1.1" xmlns="&ns_svg;" xmlns:xlink="&ns_xlink;" xmlns:a="http://ns.adobe.com/AdobeSVGViewerExtensions/3.0/"
	 width="316" height="316" viewBox="-0.3779297 -0.3779297 501 501" enable-background="new -0.3779297 -0.3779297 501 501"
	 xml:space="preserve">
<defs>
</defs>
<polygon opacity="0" fill-rule="evenodd" clip-rule="evenodd" fill="#FFFFFF" points="0,0 500,0 500,500 0,500 0,0 "/>
<path fill-rule="evenodd" clip-rule="evenodd" fill="#CCCCCC" d="M459.5429688,160.2866211
	c19.2900391,44.3759766,24.6142578,101.7358398,10.21875,149.9291992
	c-11.6757813,41.4140625-34.3925781,80.1337891-69.3125,110.1464844
	c-33.4199219,29.1289063-72.0429688,46.7568359-114.8535156,54.2607422
	c-80.1313477,11.3408203-153.4570313-15.9492188-206.6547852-74.421875
	C24.2285156,339.9804688,6.1669922,245.4755859,37.0712891,168.7460938
	c18.5048828-52.8530273,66.5878906-104.3657227,118.9711914-125.9545898
	c46.1201172-21.1787109,106.987793-26.5249023,157.1928711-11.0131836
	c56.9707031,15.2255859,113.3564453,60.5249023,140.09375,115.3867188L459.5429688,160.2866211L459.5429688,160.2866211z"/>
<path fill-rule="evenodd" clip-rule="evenodd" d="M447.0166016,161.1074219
	c20.7919922,44.3671875,25.1259766,103.3623047,9.6035156,151.3125
	c-14.7558594,51.3291016-54.3291016,100.6650391-103.0546875,126.7441406
	C306.2255859,466.6152344,239.2314453,474,185.2524414,456.1279297
	C130.15625,440.0146484,76.3999023,394.0732422,53.1733398,340.0712891
	C32.1367188,296.9570313,27.6875,239.7192383,41.3334961,191.9042969
	C55.5722656,137.9467773,98.0029297,83.8334961,150.1137695,58.3613281
	c51.3447266-27.9736328,123.8725586-32.2558594,178.8774414-9.3764648
	C378.3378906,67.5073242,426.0722656,111.9780273,447.0166016,161.1074219L447.0166016,161.1074219z"/>
<path fill-rule="evenodd" clip-rule="evenodd" fill="#CCCCCC" d="M385.0302734,168.2143555
	c26.1601563,40.3291016,30.1289063,101.5795898,9.3222656,145.6743164
	c-12.3798828,27.6347656-34.5351563,54.3212891-61.7636719,70.3837891
	c-2.3837891-0.3623047-2.7441406,2.3935547-4.7451172,2.9082031
	c-19.8623047,11.0087891-41.5009766,18.3955078-65.2998047,19.9052734
	c-62.9980469,4.9804688-121.940918-27.1474609-152.0688477-82.8671875
	c-22.7758789-40.2216797-25.1064453-99.6010742-3.7822266-141.0673828
	c18.5742188-40.1987305,57.8549805-74.6230469,99.9003906-85.0029297
	c49.4155273-14.3046875,103.4858398-2.3227539,142.1235352,28.7905273
	C362.6904297,138.6396484,375.9257813,153.1030273,385.0302734,168.2143555L385.0302734,168.2143555z"/>
<path fill-rule="evenodd" clip-rule="evenodd" fill="#FFFFFF" d="M249.5263672,396.6191406
	c80.5771484,0,145.8994141-65.3222656,145.8994141-145.8994141c0-80.5776367-65.3222656-145.9003906-145.8994141-145.9003906
	S103.625,170.1420898,103.625,250.7197266C103.625,331.296875,168.9492188,396.6191406,249.5263672,396.6191406
	L249.5263672,396.6191406z"/>
<path fill-rule="evenodd" clip-rule="evenodd" fill="#CCCCCC" d="M263.0556641,43.9589844
	c5.5351563,3.6025391,5.8212891,10.2431641,5.7275391,16.2568359c-0.8408203,6.1455078-1.5498047,14.0424805-8.6835938,15.7104492
	c-22.9375-1.2524414-44.2226563,1.6210938-64.1079102,8.4975586c-0.4873047,2.3823242,1.277832,4.6293945,1.4174805,7.2587891
	l-13.0039063,4.8330078l-0.8828125-0.8725586l-14.1123047-37.137207
	c17.2495117-7.862793,36.2695313-12.4785156,55.9282227-14.9672852c10.894043-1.3120117,22.1689453-1.625,33.1987305-1.059082
	L263.0556641,43.9589844L263.0556641,43.9589844z"/>
<path fill-rule="evenodd" clip-rule="evenodd" fill="#CCCCCC" d="M307.9511719,50.6035156
	c-2.5585938,13.2954102-6.4951172,26.4741211-9.8056641,39.7744141l-14.9306641-3.6782227
	c2.8095703-13.2963867,5.3652344-26.9677734,9.0507813-40.1455078
	C297.5351563,47.777832,302.8037109,49.0024414,307.9511719,50.6035156L307.9511719,50.6035156z"/>
<path fill-rule="evenodd" clip-rule="evenodd" d="M252.0888672,54.5439453
	c1.0087891,1.4970703,1.7744141,3.4980469,1.0322266,5.5068359l-1.6201172,1.6391602
	c-21.0517578-0.2607422-41.2045898,3.6083984-60.0927734,9.3510742c-1.5161133-2.121582-1.9086914-5.1269531-2.9248047-7.6274414
	l0.8725586-0.8828125c19.1381836-5.9931641,39.9165039-9.9916992,61.2216797-9.1064453L252.0888672,54.5439453
	L252.0888672,54.5439453z"/>
<path fill-rule="evenodd" clip-rule="evenodd" fill="#CCCCCC" d="M349.8974609,68.2915039l29.6435547,58.2270508
	c0.5058594,1.125,1.7548828,0.4912109,2.3779297-0.0126953l19.4472656-18.2753906
	c3.9013672,3.1108398,6.5556641,7.1054688,9.8339844,10.972168l-0.6210938,1.0058594l-29.0449219,27.0996094
	c-4.7900391-4.9863281-9.4589844-10.7241211-14.2490234-15.9599609L341.0849609,83.375
	c-0.2509766-0.2480469-0.5039063-0.6230469-0.8789063-0.4951172c-3.9726563,6.7875977-6.8144531,13.9448242-10.7890625,20.6083984
	l-12.8125-6.0693359l0.1162109-1.3793945c5.7001953-11.9350586,11.1464844-23.9941406,16.8427734-35.9291992
	C339.2158203,62.2104492,344.4941406,65.1884766,349.8974609,68.2915039L349.8974609,68.2915039z"/>
<path fill-rule="evenodd" clip-rule="evenodd" fill="#CCCCCC" d="M172.65625,101.9682617
	c-19.1162109,10.003418-37.203125,24.7631836-52.1435547,42.262207
	c-10.4506836-9.0888672-20.2705078-17.6801758-30.4716797-27.0224609l0.3686523-1.2553711
	c3.2387695-3.6513672,6.3496094-7.4282227,9.8413086-10.5795898l21.6586914,19.4282227l1.2514648-0.3828125
	c12.9570313-13.3535156,27.6845703-23.8344727,43.1777344-32.0634766
	C168.7348633,95.2241211,170.8842773,98.7207031,172.65625,101.9682617L172.65625,101.9682617z"/>
<path fill-rule="evenodd" clip-rule="evenodd" d="M162.015625,149.2651367
	c4.5410156,5.487793,10.5683594,8.0869141,17.8334961,7.4208984l144.9731445-0.1699219
	c4.7568359-0.9042969,9.6386719-1.9326172,12.8710938-6.4604492c8.1787109,6.21875,15.2392578,14.2006836,21.171875,22.3120117
	c-0.8691406,1.5083008-2.9921875,2.5229492-3.8603516,4.2822266c-2.234375,3.5195313-3.0908203,7.6601563-3.3164063,12.0463867
	l0.2861328,120.6630859c-2.0361328,17.0537109-10.0917969,33.1367188-25.3232422,43.3701172
	c-20.5898438,15.3994141-48.6699219,13.0488281-69.5175781,27.3203125
	c-2.4951172,1.8925781-4.9873047,4.5390625-6.6015625,7.0546875
	c-17.5258789-19.8271484-45.7021484-16.6650391-67.1923828-28.3251953
	c-23.7368164-9.8945313-35.7744141-34.3876953-35.409668-59.2001953l-0.121582-113.5224609
	c-1.03125-5.0053711-2.940918-10.5087891-7.8413086-13.112793l0.1191406-1.003418
	c6.21875-8.4301758,13.1962891-15.6088867,21.3022461-22.6713867L162.015625,149.2651367L162.015625,149.2651367z"/>
<path fill-rule="evenodd" clip-rule="evenodd" fill="#CCCCCC" d="M113.6728516,153.7905273
	c-3.7314453,4.9091797-6.7075195,10.4379883-10.3149414,15.2192383l-8.2631836,1.4238281
	c-11.2875977,20.9868164-17.6748047,44.0766602-19.4179688,69.0219727l0.2558594,1.1259766
	c2.5205078,2.4926758,5.1625977,4.3583984,6.9306641,6.9790039c0.1547852,5.2617188-0.065918,10.7763672,0.2119141,15.7861328
	l-0.8779297-0.2451172l-39.5273438-33.237793c2.3696289-24.6967773,8.7583008-47.7880859,19.1660156-69.2714844l1.0004883-0.5068359
	l50.4555664-7.2944336l0.5014648-0.003418L113.6728516,153.7905273L113.6728516,153.7905273z"/>
<path fill-rule="evenodd" clip-rule="evenodd" fill="#CCCCCC" d="M437.3652344,160.784668
	c10.5175781,21.1176758,17.1591797,44.1376953,19.1738281,68.8105469l-33.2910156,29.7543945l-7.1083984,6.0546875
	c0.2177734-5.765625,0.0537109-12.6582031,0.6513672-18.4238281l6.7304688-6.1772461
	c-0.8916016-25.5571289-7.7871094-48.8251953-18.8066406-70.3164063c-3.0117188-0.8603516-6.2714844-1.21875-9.4082031-1.953125
	l-9.8583984-15.8588867L437.3652344,160.784668L437.3652344,160.784668z"/>
<path fill-rule="evenodd" clip-rule="evenodd" fill="#FA0026" d="M188.7797852,162.9008789l58.3920898,0.1811523
	l0.4179688,7.7666016l-0.0024414,204.8691406c-27.4179688-18.6464844-68.8554688-11.7763672-86.7104492-45.8857422
	c-5.0673828-10.2490234-7.262207-21.8886719-6.9545898-34.1689453l-0.1000977-109.5141602
	c-0.5292969-5.2597656-2.0595703-10.012207-5.5893555-14.0029297c3.7275391-5.6591797,8.340332-9.8188477,13.4511719-14.6088867
	C169.2314453,162.7592773,179.0058594,162.9555664,188.7797852,162.9008789L188.7797852,162.9008789z"/>
<path fill-rule="evenodd" clip-rule="evenodd" fill="#0F218B" d="M338.3642578,158.5717773
	c4.4072266,3.859375,8.5693359,8.5991211,12.3544922,13.4638672c-4.6035156,5.9150391-5.1884766,13.5625-5.1455078,21.4560547
	l0.3779297,114.1479492c-1.2773438,18.4257813-13.0839844,36.1582031-30.2060547,44.2714844
	c-18.1162109,9.4970703-39.9121094,10.6191406-58.0292969,20.1162109l-5.2412109,3.7871094l-0.3886719-2.2519531
	l-0.1513672-210.2563477c0.8730469-0.5053711,2.5009766-0.5141602,3.8818359-0.2709961l68.2861328-0.3745117
	C329.3662109,162.5048828,333.7382813,160.3515625,338.3642578,158.5717773L338.3642578,158.5717773z"/>
<path fill-rule="evenodd" clip-rule="evenodd" d="M77.1967773,173.9140625
	c-7.175293,16.9555664-12.2148438,34.7763672-14.7416992,53.5864258l-0.7524414,0.0024414l-6.800293-6.2265625
	c2.2915039-16.0512695,6.3417969-31.3603516,12.5292969-45.8046875c2.8735352-1.2675781,6.3833008-1.1625977,9.5131836-1.8061523
	L77.1967773,173.9140625L77.1967773,173.9140625z"/>
<path fill-rule="evenodd" clip-rule="evenodd" d="M431.8046875,174.8486328
	c6.8476563,14.7480469,10.9462891,30.7641602,12.9169922,47.418457c-2.2451172,2.0175781-4.734375,4.7875977-7.4853516,6.1806641
	c-2.8603516-18.9047852-7.4707031-37.0473633-14.9560547-54.0473633l0.3701172-1.0043945L431.8046875,174.8486328
	L431.8046875,174.8486328z"/>
<path fill-rule="evenodd" clip-rule="evenodd" d="M302.9404297,187.5854492
	c0.640625,3.0043945,0.2841797,6.2631836,0.4277344,9.5209961l1.3857422,1.2451172l0.1748047,9.5219727
	c5.0087891-0.7788086,1.6591797,5.2539063,2.9257813,7.6274414c3.0126953,0.8613281,7.0175781,0.2128906,10.5283203,0.5683594
	c0.6376953,1.8774414,0.6503906,4.6318359-0.2128906,6.6435547l-21.8027344,0.1191406
	c-0.4941406,1.3803711-0.109375,3.1318359-0.2255859,4.762207l0.7548828,0.496582l21.5546875,0.1328125
	c0.5087891,1.7514648,0.2705078,3.8833008,0.1542969,5.7626953c-3.2548828,0.5195313-6.8896484,0.1635742-10.2714844,0.3081055
	c-1.1201172,1.6337891-0.3525391,4.3862305-0.5908203,6.519043c0.7578125,1.1220703,2.6318359,0.1103516,3.6376953,0.855957
	c2.3916016,1.7416992,6.0263672,2.2216797,7.4199219,4.7207031c-0.2480469,0.628418,0.1337891,1.7543945-0.8691406,1.7592773
	c-0.7451172,1.2563477-0.4814453,3.5097656-0.3466797,5.0146484c1.3779297,0.1162109,1.1347656,1.4970703,1.1396484,2.2490234
	l0.0029297,0.6259766c-3.4990234,1.6494141-6.6171875,4.2958984-10.6269531,4.1923828
	c-0.4892578,2.1328125-0.3525391,4.6376953-0.2128906,6.8925781c4.1337891-0.1464844,7.1591797,2.8417969,10.5478516,4.3291016
	c0.6308594,0.4970703,0.2607422,1.5019531,0.390625,2.2519531c-2.5058594,0.390625-0.8613281,3.2626953-1.3525391,4.8964844
	c0.6308594,0.8720703,1.8896484,1.7431641,1.3974609,3.3740234c-1.9960938,1.6396484-4.4931641,3.0322266-7.1230469,3.9238281
	c-1.2490234,0.3828125-3.7617188-0.9824219-3.8759766,1.1484375c0.6367188,1.7529297-1.5927734,6.5253906,2.0400391,6.2539063
	l8.6455078,0.078125c0.5117188,2.0019531,0.5244141,4.1318359,0.0332031,6.140625l-21.5498047,0.2431641
	c-0.4941406,1.5048828-0.6083984,3.6376953,0.1513672,5.0107422l21.1777344,0.1347656
	c0.7597656,1.6230469,0.4003906,4.2578125,0.2832031,6.1376953c-3.3789063,0.6455078-7.140625,0.1640625-10.6464844,0.5595703
	c-0.4892578,2.1328125-0.2255859,4.7626953-0.0888672,6.8925781c1.0107422,1.2460938,4.3828125-0.7773438,3.8964844,1.9833984
	c-0.2412109,1.8798828,0.7773438,4.6308594-0.8466797,5.6435547l-23.5576172-0.2480469
	c-0.5117188-2.0009766-0.5273438-4.5058594-0.0361328-6.5146484c0.7451172-1.1328125,3.6376953,0.6074219,3.7519531-1.5253906
	c-0.1396484-2.1279297,0.2255859-4.3847656-0.4101563-6.2617188c-3.6376953-0.4814453-6.6552734-2.4697266-9.7958984-4.0810547
	c-0.2587891-1.1269531-0.2685547-3.1308594,1.3603516-3.1416016c0.2431641-1.2539063,0.1083984-2.7558594,0.1015625-4.1337891
	c-1.0058594-0.6201172-1.8847656-1.1171875-1.5175781-2.6220703c3.25-1.6484375,5.484375-5.4179688,9.7470703-4.5644531
	l0.4990234-0.3798828l-0.0322266-6.3886719c-3.1386719-0.8613281-6.8935547,0.0351563-10.15625-0.6962891
	c-0.1337891-1.8798828-0.3974609-4.2587891,0.3447266-6.0166016l22.0517578-0.1210938
	c0.7441406-1.3837891,0.4833984-3.3876953,0.3496094-4.8896484l-0.7548828-0.4960938l-21.6767578-0.0078125
	c-0.8867188-1.7480469-0.3974609-4.0078125-0.5341797-6.0107422l0.6230469-0.6308594l9.2714844-0.1748047
	c0.6152344-2.1328125,0.2255859-4.5117188,0.3388672-6.7685547c-2.8876953-0.8613281-6.7685547-0.2128906-9.9013672-0.5732422
	c-0.5117188-1.8769531-0.4003906-4.1308594-0.2841797-6.0107422l1.2490234-0.5087891l21.1767578-0.1171875
	c0.3652344-1.6308594,0.6054688-3.8867188-0.1572266-5.3876953l-22.0527344-0.1279297
	c-0.3857422-2.0024414-0.7753906-4.6318359,0.2148438-6.3925781c3.1337891-0.0175781,6.5175781,0.215332,9.5224609-0.3027344
	l0.0908203-6.265625c-1.0078125-0.9970703-2.7558594-0.1103516-3.7617188-0.730957
	c-2.0166016-1.9936523-8.4023438-0.9560547-6.1728516-5.7299805c2.1279297-0.6381836,0.7314453-3.512207,1.0986328-5.269043
	c-1.8789063,0.0102539-1.2666016-2.2480469-1.1445313-3.2514648c2.6220703-1.6435547,5.2412109-3.6625977,8.4990234-4.0566406
	c0.6123047-2.1328125,0.0986328-4.7612305,0.4609375-7.0195313c0.9980469-1.1323242,3.2597656,0.3583984,3.8779297-1.2739258
	l-0.0507813-9.0205078l1.1220703-1.2602539c0.2333984-3.2592773-0.5390625-6.8876953,0.5732422-9.6513672L302.9404297,187.5854492
	L302.9404297,187.5854492z"/>
<path fill-rule="evenodd" clip-rule="evenodd" fill="#CCCCCC" d="M299.7333984,196.7504883
	c-0.2509766,0.1264648-0.1240234,0.3759766-0.1240234,0.6269531c-0.6230469,0.2543945-1.3779297,0.1328125-2.0039063,0.1367188
	c-0.5117188-2.0024414-0.2783203-5.0107422-0.1640625-7.3916016
	C299.9511719,191.1103516,299.4677734,194.371582,299.7333984,196.7504883L299.7333984,196.7504883z"/>
<path fill-rule="evenodd" clip-rule="evenodd" d="M197.5888672,192.550293
	c1.6376953,1.7441406-1.4980469,1.1347656-1.8666992,2.3901367c-2.2446289,2.1430664-1.9760742,5.3994141-1.9584961,8.40625
	l-0.9536133,54.6376953c1.1323242,0.8691406,2.7573242,0.109375,4.0126953,0.6025391
	c1.0117188,1.6240234-1.0957031,5.6464844,1.7856445,5.6289063l8.144043-0.0429688
	c1.2441406-1.6367188-1.0332031-5.6337891,1.8496094-5.6484375c1.0004883-0.2558594,2.3823242,0.3623047,3.0043945-0.5195313
	c-0.2373047-20.171875-0.8452148-39.5898438-1.5820313-59.8837891c-0.3852539-1.5024414-1.1450195-3.1274414-2.6547852-3.9960938
	c-0.5004883,0.0024414-1.003418-0.1206055-1.3808594-0.6181641c-0.1289063-0.5019531,0.3701172-1.0043945,0.7460938-1.0068359
	l34.9589844,0.0581055c0.5029297,0.2480469,0.2558594,0.7509766,0.2583008,1.2524414
	c-1.6274414,0.2597656-3.5009766,1.5224609-3.8666992,3.277832c-0.3901367,20.175293-0.65625,40.1000977-0.5424805,60.9008789
	l2.1342773,0.7402344l0.0483398,8.7695313l-0.9980469,0.8837891l0.1254883,22.8037109
	c1.1323242,0.8710938,3.0078125,0.2333984,4.2641602,0.6025391c0.5180664,3.2558594,0.4130859,6.890625,0.1811523,10.2744141
	c-0.9941406,1.6347656-4.8911133-0.8505859-4.4985352,2.1533203c0.6357422,1.7529297-1.4731445,5.7734375,1.9086914,5.5048828
	c0.1352539,1.6259766,0.3974609,3.7568359-0.3457031,5.2636719l-32.9555664-0.0683594
	c-0.5087891-1.5019531-0.2695313-3.5078125-0.152832-5.0126953l2.1264648-0.6386719
	c0.4902344-2.0058594,0.3520508-4.3876953,0.0913086-6.390625c-1.2592773-0.9960938-4.8828125,0.7802734-4.0229492-2.2324219
	c-1.6323242-0.8681641-3.8857422-0.3544922-5.8920898-0.46875c-0.875,0.2539063-0.3671875,1.5048828-0.7397461,2.1337891
	c-1.1220703,0.8837891-3.3867188-0.6083984-3.8779297,1.1494141c0.1367188,2.0039063-0.3525391,4.3876953,0.4086914,6.0117188
	c1.0009766-0.2558594,1.8823242,0.4912109,1.5126953,1.4941406l-0.1054688,3.7617188
	c-11.1484375,0.6865234-21.0493164,0.2412109-32.2011719,0.1748047c-0.5092773-1.375-0.2685547-3.3818359-0.1523438-4.8837891
	c3.1313477-0.2685547,1.6035156-4.5195313,1.8417969-6.7763672c-0.8852539-1.5-4.0063477,0.5214844-4.2685547-1.6054688
	l0.0737305-9.3984375c1.2460938-1.2617188,5.0166016,0.9755859,4.3745117-1.9052734l-0.1201172-22.0507813l-1.2602539-1.1220703
	l0.2050781-8.2705078c0.7485352-0.6308594,3.0083008,0.1083984,2.3710938-1.8925781l-1.2021484-59.1352539
	c-0.3837891-1.5009766-1.3945313-2.8740234-2.7763672-3.6186523c-0.6279297-0.2470703-2.1313477-0.1142578-1.5107422-1.3706055
	c1.2485352-0.6333008,3.0068359-0.140625,4.3823242-0.5244141L197.5888672,192.550293L197.5888672,192.550293z"/>
<path fill-rule="evenodd" clip-rule="evenodd" fill="#CCCCCC" d="M187.0004883,203.8852539
	c-0.1523438,18.043457-0.4282227,36.340332-1.0805664,54.3852539l-16.6645508,0.09375l-0.2583008-1.3779297l-1.0800781-59.8876953
	l0.246582-0.5029297C175.1259766,196.8022461,184.6811523,197.2709961,187.0004883,203.8852539L187.0004883,203.8852539z"/>
<path fill-rule="evenodd" clip-rule="evenodd" fill="#CCCCCC" d="M227.8261719,200.0268555
	c2.0185547,2.3701172,3.4106445,4.9931641,3.3041992,8.2519531l-0.8549805,49.7485352l-16.7895508,0.09375
	c-1.3642578-20.2915039-0.9780273-41.0942383-1.8393555-61.1376953l0.6235352-0.5039063
	C217.7822266,196.699707,223.9707031,196.2133789,227.8261719,200.0268555L227.8261719,200.0268555z"/>
<path fill-rule="evenodd" clip-rule="evenodd" fill="#CCCCCC" d="M299.6269531,200.2587891
	c1.6386719,2.121582,1.9052734,5.0019531,1.5458984,7.7602539l-4.1347656,0.0229492
	c-0.0175781-3.0068359-0.5341797-5.7602539-0.1748047-9.0205078
	C297.9912109,198.8911133,298.7451172,199.6367188,299.6269531,200.2587891L299.6269531,200.2587891z"/>
<path fill-rule="evenodd" clip-rule="evenodd" d="M184.9003906,209.409668l-0.7661133,43.2319336
	c0.003418,0.6289063-0.4941406,1.1328125-1.1186523,1.5097656c-1.2514648,0.2587891-2.1342773-0.7392578-2.3911133-1.8642578
	l1.0180664-42.734375c-0.0024414-0.6254883,0.4941406-1.2548828,1.1196289-1.6347656
	C183.887207,207.6606445,184.7700195,208.5332031,184.9003906,209.409668L184.9003906,209.409668z"/>
<path fill-rule="evenodd" clip-rule="evenodd" d="M229.2548828,209.1665039
	c0.0795898,14.284668-0.2119141,29.6977539-0.6357422,43.7338867c-0.2470703,0.7519531-0.6210938,1.1298828-1.3720703,1.3857422
	c-1.0004883,0.2558594-1.6323242-0.8691406-1.7631836-1.6191406l0.637207-43.734375
	C226.4882813,207.3022461,229.1206055,207.4125977,229.2548828,209.1665039L229.2548828,209.1665039z"/>
<path fill-rule="evenodd" clip-rule="evenodd" fill="#CCCCCC" d="M300.5673828,211.7822266
	c1.0078125,1.1220703,1.765625,2.2456055,1.6484375,3.7504883c-2.7529297,0.640625-5.8896484,0.03125-9.1474609,0.0493164
	l0.09375-5.8896484C295.7919922,209.5527344,298.5527344,210.0395508,300.5673828,211.7822266L300.5673828,211.7822266z"/>
<path fill-rule="evenodd" clip-rule="evenodd" fill="#CCCCCC" d="M317.2832031,221.2128906
	c-12.0244141,0.6928711-23.5556641,0.1293945-35.2080078,0.1938477c-0.2509766-0.2495117-0.2539063-0.5-0.2558594-0.7509766
	l6.1220703-3.1665039l29.1972656,0.0913086L317.2832031,221.2128906L317.2832031,221.2128906z"/>
<path fill-rule="evenodd" clip-rule="evenodd" fill="#CCCCCC" d="M291.0039063,227.6220703
	c-1.75,0.5117188-3.8808594,0.3974609-5.6357422,0.1572266l0.1015625-4.2612305
	C287.7265625,223.7563477,289.9912109,225.4980469,291.0039063,227.6220703L291.0039063,227.6220703z"/>
<path fill-rule="evenodd" clip-rule="evenodd" fill="#CCCCCC" d="M317.078125,229.3583984
	c0.5068359,1.0004883,0.1396484,2.3798828,0.2685547,3.5073242c-9.6435547,0.5532227-19.6699219,0.1088867-29.4453125,0.0366211
	l-5.9023438-2.4736328l-0.0048828-0.8779297C293.3955078,229.2382813,306.4257813,229.1669922,317.078125,229.3583984
	L317.078125,229.3583984z"/>
<path fill-rule="evenodd" clip-rule="evenodd" fill="#CCCCCC" d="M302.7324219,240.965332
	c-2.3779297,0.5141602-5.5117188,0.28125-8.1435547,0.2954102l-0.5019531-0.2485352
	c0.1142578-1.8793945-0.2734375-4.0073242,0.3417969-5.7651367
	C297.9404297,235.3530273,301.4609375,237.5888672,302.7324219,240.965332L302.7324219,240.965332z"/>
<path fill-rule="evenodd" clip-rule="evenodd" fill="#CCCCCC" d="M310.7626953,242.9262695
	c2.1357422,1.1157227,4.6464844,1.9794922,6.4091797,3.4726563l-34.9599609,0.0673828
	c0.1191406-1.3793945-1.0234375-3.878418,1.1064453-3.8911133L310.7626953,242.9262695L310.7626953,242.9262695z"/>
<path fill-rule="evenodd" clip-rule="evenodd" fill="#CCCCCC" d="M313.4453125,252.6855469l0.0029297,0.5009766
	l-8.1416016,0.0429688c-0.5097656-1.2490234-0.5224609-3.3789063-0.0283203-4.8847656
	C308.5361328,248.4506836,312.0498047,249.3095703,313.4453125,252.6855469L313.4453125,252.6855469z"/>
<path fill-rule="evenodd" clip-rule="evenodd" fill="#CCCCCC" d="M317.34375,254.9189453
	c-1.9960938,1.6396484-4.6201172,2.7822266-6.9960938,3.921875l-28.1943359-0.2207031
	c-0.2558594-1.2509766-0.1416016-3.0068359,0.4785156-4.0126953L317.34375,254.9189453L317.34375,254.9189453z"/>
<path fill-rule="evenodd" clip-rule="evenodd" fill="#CCCCCC" d="M186.5581055,260.5253906l-0.4316406,0.5673828
	l-19.5498047-0.2685547l-0.0683594-0.8154297C173.2758789,260.2216797,180.2885742,259.4306641,186.5581055,260.5253906
	L186.5581055,260.5253906z"/>
<path fill-rule="evenodd" clip-rule="evenodd" fill="#CCCCCC" d="M227.3432617,260.1152344
	c0.3129883,0.1816406,0.815918,0.3056641,1.1933594,0.6787109l-19.5458984,0.1083984l0.0595703-0.8125L227.3432617,260.1152344
	L227.3432617,260.1152344z"/>
<path fill-rule="evenodd" clip-rule="evenodd" fill="#CCCCCC" d="M189.769043,262.7011719
	c0.3129883,0.4355469,1.1904297,0.6816406,1.0703125,1.4335938c-0.7524414-0.1210938-1.6289063,0.1347656-1.7490234,0.8867188
	l-0.1191406,1.1269531l-22.4287109,0.1240234c-0.1318359-1.2509766-0.2661133-2.7558594,0.2954102-3.6953125L189.769043,262.7011719
	L189.769043,262.7011719z"/>
<path fill-rule="evenodd" clip-rule="evenodd" fill="#CCCCCC" d="M231.6181641,262.5976563
	c1.0678711,0.8056641,2.328125,2.1777344,2.5864258,3.5537109l-19.2954102,0.1064453
	c0.3535156-3.8857422-4.0175781-1.2314453-5.9018555-2.2246094c-0.1279297-0.4990234-0.5092773-1.4990234,0.3061523-1.5654297
	L231.6181641,262.5976563L231.6181641,262.5976563z"/>
<path fill-rule="evenodd" clip-rule="evenodd" fill="#CCCCCC" d="M303.6269531,267.1494141
	c-3.0068359,0.1416016-6.3886719,0.4101563-9.3984375-0.0732422c0.1171875-1.6318359-0.2685547-3.3818359,0.3496094-4.8896484
	C298.2138672,262.2910156,302.2285156,263.5214844,303.6269531,267.1494141L303.6269531,267.1494141z"/>
<path fill-rule="evenodd" clip-rule="evenodd" fill="#CCCCCC" d="M211.4277344,271.2890625
	c-6.5761719,0.0351563-13.7084961,0.7089844-20.4238281,0.1113281c-0.5102539-1.7509766-0.3964844-3.8808594-0.1557617-5.6367188
	c6.7646484-0.2890625,13.5307617-0.3271484,20.5493164-0.1142578L211.4277344,271.2890625L211.4277344,271.2890625z"/>
<path fill-rule="evenodd" clip-rule="evenodd" d="M192.7529297,270.3896484
	c-0.2480469,0.3769531-0.4960938,0.8789063-1.0004883,0.5058594c-0.5078125-1.375-0.5180664-3.2548828-0.0239258-4.6347656
	C193.609375,266.5009766,192.3691406,269.0117188,192.7529297,270.3896484L192.7529297,270.3896484z"/>
<path fill-rule="evenodd" clip-rule="evenodd" d="M195.4916992,266.9902344
	c-0.1191406,1.2539063,0.3911133,2.8798828-0.4804688,3.8876953l-0.6269531,0.0029297
	c-0.3823242-1.3759766-0.519043-3.3789063,0.2255859-4.6357422
	C195.1088867,265.9892578,195.3637695,266.6152344,195.4916992,266.9902344L195.4916992,266.9902344z"/>
<path fill-rule="evenodd" clip-rule="evenodd" d="M197.8876953,269.984375c0.1279297,0.375-0.2431641,1.1298828-0.7470703,0.8808594
	c-0.6333008-1.2480469-0.6445313-3.3789063-0.0253906-4.6357422
	C198.4956055,266.5976563,197.6308594,268.7324219,197.8876953,269.984375L197.8876953,269.984375z"/>
<path fill-rule="evenodd" clip-rule="evenodd" d="M200.3920898,269.5966797
	c0.1289063,0.625,0.0063477,1.1269531-0.4941406,1.2539063l-0.6269531,0.0048828
	c-0.3837891-1.3779297-0.7714844-3.6298828,0.2255859-4.6386719
	C201.1264648,266.4580078,200.1347656,268.46875,200.3920898,269.5966797L200.3920898,269.5966797z"/>
<path fill-rule="evenodd" clip-rule="evenodd" d="M202.503418,266.1992188
	c0.3837891,1.3779297,0.6459961,3.3798828-0.1000977,4.6386719c-1.1274414,0.1318359-0.7573242-1.125-0.8867188-1.7509766
	l0.2353516-2.8828125L202.503418,266.1992188L202.503418,266.1992188z"/>
<path fill-rule="evenodd" clip-rule="evenodd" d="M205.5292969,269.4423828
	c0.0024414,0.5009766,0.0048828,1.0029297-0.3686523,1.3798828c-0.6259766,0.2539063-1.1298828-0.2451172-1.1323242-0.7470703
	c0.2431641-1.2539063-0.5180664-3.1289063,0.6054688-3.8857422
	C205.8886719,266.4326172,205.5229492,268.3144531,205.5292969,269.4423828L205.5292969,269.4423828z"/>
<path fill-rule="evenodd" clip-rule="evenodd" d="M207.5419922,270.8095703l-0.5019531,0.0029297
	c-0.3837891-1.3779297-0.6469727-3.6298828,0.3496094-4.6386719
	C208.2739258,267.4228516,208.4091797,269.2998047,207.5419922,270.8095703L207.5419922,270.8095703z"/>
<path fill-rule="evenodd" clip-rule="evenodd" d="M210.5268555,267.0332031
	c-0.3681641,1.2558594,0.7714844,3.5029297-0.8549805,3.890625c-0.7583008-1.2509766-0.7700195-3.3789063-0.0249023-4.6386719
	C210.1459961,266.0322266,210.4003906,266.6582031,210.5268555,267.0332031L210.5268555,267.0332031z"/>
<path fill-rule="evenodd" clip-rule="evenodd" fill="#CCCCCC" d="M310.6542969,268.7373047
	c2.2587891,1.1171875,4.7724609,2.1054688,6.7861328,3.5976563l-0.5019531,0.2529297l-34.7070313,0.0664063
	c-0.1337891-1.2519531-0.3925781-2.8808594,0.1044922-4.0107422L310.6542969,268.7373047L310.6542969,268.7373047z"/>
<path fill-rule="evenodd" clip-rule="evenodd" fill="#CCCCCC" d="M189.175293,280.5576172
	c1.0205078,3.2519531,0.2885742,7.0166016,0.0566406,10.4013672c-2.5102539-0.7402344-6.0209961-1.3457031-8.2666016,0.4199219
	c-0.2573242-1.2509766,0.6064453-3.6376953,0.7202148-5.5166016c-0.0097656-2.0039063-0.6508789-4.3828125-2.5366211-5.7509766
	c-1.6391602-1.7451172-4.0214844-2.1074219-6.2758789-1.84375c-2.253418,0.2636719-4.1240234,2.0263672-4.9902344,4.0380859
	l0.144043,3.2548828l6,20.140625c0.2504883,0.2490234,0.7573242,1.125,1.0043945,0.3701172
	c-1.293457-7.2597656-3.8388672-14.3886719-5.5073242-21.6455078l5.1347656-0.4052734l1.5717773,12.2705078
	c0.5053711,0.75,1.3793945,0.2431641,2.0053711-0.0107422l1.1166992-1.7597656
	c0.5258789,4.3818359-0.199707,9.1494141,0.6992188,13.2783203c1.1274414-0.1318359,0.6181641-1.5068359,0.7397461-2.3857422
	l0.0722656-9.5224609c2.0126953,1.3681641,4.8964844,1.7275391,7.5273438,1.4619141
	c0.1469727,4.0097656-1.3349609,8.0273438-0.9375,11.9082031c-6.5151367,0.2890625-13.28125,0.3242188-19.6723633,0.1083984
	c-0.4472656-12.9033203-0.2695313-26.3115234,0.0356445-39.09375
	C175.9672852,271.2324219,185.7451172,271.9316406,189.175293,280.5576172L189.175293,280.5576172z"/>
<path fill-rule="evenodd" clip-rule="evenodd" fill="#CCCCCC" d="M229.6323242,277.7050781
	c-3.7456055,2.5253906-2.0888672,7.6552734-3.0703125,11.5439453c-0.2431641,1.2539063-0.1103516,2.6318359-0.6040039,3.8876953
	c-2.2646484-1.7421875-5.0297852-3.2294922-8.1572266-2.2109375c-1.6274414,0.2607422-3.1220703,1.8974609-3.8666992,3.2802734
	c-0.4760742,4.3876953,1.1743164,8.5136719,1.9492188,12.6425781l0.5014648-0.0019531
	c0.3574219-3.2607422-1.1611328-6.0087891-1.0537109-9.2666016c2.1328125,0.6162109,5.0131836,0.0986328,7.0131836-0.7900391
	c0.6420898,2.8798828,0.2861328,6.515625,0.4291992,9.8964844c0.5043945,0.4990234,1.1352539,1.2470703,1.8847656,0.7421875
	c2.2382813-3.0195313,4.7270508-6.2919922,4.0795898-9.921875l-1.3930664-2.7480469l1.1879883-11.9111328
	c1.5048828,0.2431641,2.8901367,1.4892578,4.8930664,1.1015625c-1.3413086,6.8974609-3.6835938,13.8037109-5.0234375,20.828125
	l3.53125,4.2402344c-7.0146484,0.5390625-13.4057617,0.3242188-20.7973633,0.3642578
	c-0.6889648-11.3984375-0.1113281-20.1738281-0.1748047-31.6992188l7.8935547-0.2939453
	c0.8676758-1.6337891,0.4799805-3.6376953,0.5952148-5.6416016
	C223.578125,270.4707031,227.7324219,274.0830078,229.6323242,277.7050781L229.6323242,277.7050781z"/>
<path fill-rule="evenodd" clip-rule="evenodd" fill="#FA0026" d="M209.1821289,273.0546875
	c0.5332031,5.8867188,0.4467773,12.9033203,0.2265625,18.2939453c-1.1259766,0.5068359-2.8842773-0.2353516-3.8808594,0.6484375
	c0.6459961,3.6298828-3.7514648,1.3984375-5.503418,2.0341797c-1.503418-0.1162109-0.1416016-3.1308594-2.519043-2.3662109
	l-2.2558594-0.2382813l-0.1000977-18.0429688l1.0004883-0.3828125L209.1821289,273.0546875L209.1821289,273.0546875z"/>
<path fill-rule="evenodd" clip-rule="evenodd" fill="#CCCCCC" d="M313.4628906,278.6220703l0.0029297,0.6259766
	l-8.1445313,0.0449219c-0.3818359-1.375-0.7675781-3.3789063,0.2285156-4.5107422
	C308.6806641,274.890625,311.8193359,275.7490234,313.4628906,278.6220703L313.4628906,278.6220703z"/>
<path fill-rule="evenodd" clip-rule="evenodd" fill="#CCCCCC" d="M317.4882813,281.2314453l0.0029297,0.375l-6.1230469,3.1660156
	l-29.0703125-0.0908203c-0.3828125-1.125-0.5166016-2.8779297,0.1035156-3.8837891
	C293.8056641,281.109375,306.0820313,280.4179688,317.4882813,281.2314453L317.4882813,281.2314453z"/>
<path fill-rule="evenodd" clip-rule="evenodd" fill="#CCCCCC" d="M303.3916016,292.7119141
	c-2.5029297,0.7646484-6.0117188,0.4072266-8.8945313,0.2988281c-0.1337891-1.6269531-0.2705078-3.5058594,0.2207031-5.1396484
	C298.3525391,287.7265625,301.6210938,289.5878906,303.3916016,292.7119141L303.3916016,292.7119141z"/>
<path fill-rule="evenodd" clip-rule="evenodd" fill="#CCCCCC" d="M166.2231445,299.4804688
	c-0.2480469,0.5009766-0.8764648,0.1289063-1.2509766,0.2558594c-0.1342773-1.6269531-0.5234375-3.8808594,0.2216797-5.2646484
	l1.0029297,0.1220703L166.2231445,299.4804688L166.2231445,299.4804688z"/>
<path fill-rule="evenodd" clip-rule="evenodd" fill="#CCCCCC" d="M209.4316406,295.7333984l-0.1040039,3.8857422
	c-0.8779297-0.1210938-2.628418,0.5146484-2.3862305-0.9902344c-0.1328125-1.5019531-0.0151367-2.8798828,0.3535156-4.2636719
	C208.1723633,294.4873047,210.1748047,294.0996094,209.4316406,295.7333984L209.4316406,295.7333984z"/>
<path fill-rule="evenodd" clip-rule="evenodd" fill="#CCCCCC" d="M317.4355469,294.3886719
	c0.5058594,1.125,0.265625,2.7558594,0.1464844,3.8828125c-11.7763672,0.4414063-23.6826172,0.2558594-35.3349609-0.0556641
	c1.4941406-1.6357422,3.6171875-3.0273438,5.7402344-3.9160156L317.4355469,294.3886719L317.4355469,294.3886719z"/>
<path fill-rule="evenodd" clip-rule="evenodd" fill="#CCCCCC" d="M240.7768555,299.1962891
	c-0.1206055,0.8769531-1.0004883,0.2558594-1.5009766,0.5068359c-0.7612305-1.7480469-0.0175781-3.2548828-0.027832-4.8837891
	C240.8818359,295.6855469,240.5170898,297.5673828,240.7768555,299.1962891L240.7768555,299.1962891z"/>
<path fill-rule="evenodd" clip-rule="evenodd" fill="#CCCCCC" d="M205.4301758,297.2587891l-0.1186523,1.1298828
	l-5.7631836,0.1572266c-0.628418-0.3730469-0.0048828-1.0039063-0.0078125-1.5048828
	c1.3696289-1.5097656,3.6279297-1.0234375,5.5058594-1.1582031L205.4301758,297.2587891L205.4301758,297.2587891z"/>
<path fill-rule="evenodd" clip-rule="evenodd" fill="#CCCCCC" d="M196.0449219,299.4423828
	c-0.1240234,0.2509766-0.5,0.1259766-0.7509766,0.1289063l-0.1391602-2.5078125
	C196.2832031,297.1855469,196.4160156,298.5605469,196.0449219,299.4423828L196.0449219,299.4423828z"/>
<path fill-rule="evenodd" clip-rule="evenodd" fill="#CCCCCC" d="M290.2998047,304.4375
	c-1.5019531,0.2587891-3.2578125,0.2685547-4.7617188,0.0253906c-0.1298828-1.0029297-0.390625-2.7558594,0.3564453-3.5107422
	C287.6503906,301.4433594,289.4130859,302.8115234,290.2998047,304.4375L290.2998047,304.4375z"/>
<path fill-rule="evenodd" clip-rule="evenodd" fill="#CCCCCC" d="M317.3740234,306.1679688
	c0.8847656,1.1220703,0.1396484,2.6289063,0.1474609,3.8828125l-29.1943359,0.0361328l-6.1611328-3.4755859l0.3720703-0.6289063
	L317.3740234,306.1679688L317.3740234,306.1679688z"/>
<path fill-rule="evenodd" clip-rule="evenodd" fill="#CCCCCC" d="M185.8476563,313.53125
	c-6.387207,0.5351563-13.5307617,0.3242188-20.0473633,0.2363281l-0.0151367-2.7587891
	c6.3925781,0.2148438,14.2753906-1.5810547,19.5585938,2.0234375L185.8476563,313.53125L185.8476563,313.53125z"/>
<path fill-rule="evenodd" clip-rule="evenodd" fill="#CCCCCC" d="M228.7011719,313.546875
	c-6.2617188,0.5341797-13.2788086,0.4482422-19.7963867,0.2333984c-0.7548828-0.6240234-0.3867188-1.8779297-0.2651367-2.6298828
	l0.4990234-0.3798828C215.4072266,311.2392578,223.5400391,309.1894531,228.7011719,313.546875L228.7011719,313.546875z"/>
<path fill-rule="evenodd" clip-rule="evenodd" fill="#CCCCCC" d="M303.6572266,318.3974609l-0.3720703,0.5019531
	c-3.0068359-0.109375-6.2646484,0.2861328-9.0234375-0.3271484c0.1162109-1.6289063-0.3945313-3.6298828,0.3496094-4.8857422
	C298.3681641,313.5390625,301.8867188,315.1474609,303.6572266,318.3974609L303.6572266,318.3974609z"/>
<path fill-rule="evenodd" clip-rule="evenodd" fill="#CCCCCC" d="M306.7001953,324.5205078
	c-5.2617188,0.2783203-10.5253906,0.3085938-16.1650391,0.0888672c-0.1337891-1.3779297-0.5185547-3.2558594,0.2255859-4.3876953
	C296.5292969,320.6923828,303.9111328,318.6464844,306.7001953,324.5205078L306.7001953,324.5205078z"/>
</svg>
